<svg width="42" height="42" viewBox="0 0 42 42" fill="none" xmlns="http://www.w3.org/2000/svg">
<rect y="0.574219" width="41.5024" height="40.8499" rx="20.4249" fill="white"/>
<path d="M21.8176 28.1302L15.2155 21.5477C15.1371 21.4693 15.0818 21.3844 15.0494 21.293C15.0165 21.2016 15 21.1036 15 20.9992C15 20.8947 15.0165 20.7967 15.0494 20.7053C15.0818 20.6139 15.1371 20.529 15.2155 20.4506L21.8176 13.8485C22.0005 13.6656 22.229 13.5742 22.5033 13.5742C22.7776 13.5742 23.0127 13.6722 23.2086 13.8681C23.4045 14.064 23.5024 14.2926 23.5024 14.5538C23.5024 14.815 23.4045 15.0435 23.2086 15.2394L17.4489 20.9992L23.2086 26.7589C23.3914 26.9417 23.4829 27.1669 23.4829 27.4344C23.4829 27.7024 23.3849 27.9343 23.189 28.1302C22.9931 28.3262 22.7645 28.4241 22.5033 28.4241C22.2421 28.4241 22.0135 28.3262 21.8176 28.1302Z" fill="black" stroke="black" stroke-width="0.5"/>
</svg>