<svg width="52" height="50" viewBox="0 0 52 50" fill="none" xmlns="http://www.w3.org/2000/svg">
<path fill-rule="evenodd" clip-rule="evenodd" d="M25.628 0C11.474 0 -0.00170898 11.4757 -0.00170898 25.634C-0.00170898 36.9583 7.34194 46.5653 17.5281 49.9561C18.8102 50.1907 19.2774 49.3993 19.2774 48.7188C19.2774 48.1119 19.256 46.4991 19.2433 44.3606C12.1129 45.9093 10.609 40.9239 10.609 40.9239C9.44318 37.9641 7.76219 37.1759 7.76219 37.1759C5.43484 35.5845 7.93818 35.6165 7.93818 35.6165C10.5109 35.7988 11.8644 38.2585 11.8644 38.2585C14.1512 42.1751 17.8641 41.0434 19.3243 40.3885C19.5579 38.732 20.2181 37.6025 20.952 36.9615C15.2605 36.3151 9.27572 34.1147 9.27572 24.2933C9.27572 21.4955 10.2751 19.2066 11.9145 17.4146C11.6511 16.7661 10.7711 14.1604 12.1652 10.631C12.1652 10.631 14.3176 9.94193 19.2145 13.2591C21.2592 12.6906 23.4521 12.4058 25.6312 12.3962C27.8082 12.4058 30.0011 12.6906 32.049 13.2591C36.9427 9.94193 39.0909 10.631 39.0909 10.631C40.4892 14.1604 39.6092 16.7661 39.3458 17.4146C40.9884 19.2066 41.9814 21.4955 41.9814 24.2933C41.9814 34.1403 35.987 36.3066 30.2763 36.9412C31.1979 37.7326 32.0171 39.2963 32.0171 41.6887C32.0171 45.1147 31.9861 47.8793 31.9861 48.7188C31.9861 49.4057 32.4469 50.2035 33.7482 49.9529C43.9258 46.5557 51.2631 36.9551 51.2631 25.634C51.2631 11.4757 39.7863 0 25.628 0Z" fill="#EEF5FF"/>
</svg>
