<svg width="51" height="50" viewBox="0 0 51 50" fill="none" xmlns="http://www.w3.org/2000/svg">
<path d="M25.2631 0C11.4545 0 0.263092 11.1914 0.263092 25C0.263092 38.8086 11.4545 50 25.2631 50C39.0717 50 50.2631 38.8086 50.2631 25C50.2631 11.1914 39.0717 0 25.2631 0ZM18.2709 35.459H13.3979V19.8633H18.2709V35.459ZM15.7025 17.9102H15.6635C13.8959 17.9102 12.7533 16.7188 12.7533 15.2051C12.7533 13.6621 13.935 12.5 15.7318 12.5C17.5287 12.5 18.6322 13.6621 18.6713 15.2051C18.6811 16.709 17.5385 17.9102 15.7025 17.9102ZM37.7631 35.459H32.2357V27.3926C32.2357 25.2832 31.3764 23.8379 29.4721 23.8379C28.017 23.8379 27.2065 24.8145 26.8354 25.752C26.6986 26.084 26.7182 26.5527 26.7182 27.0312V35.459H21.2397C21.2397 35.459 21.308 21.1621 21.2397 19.8633H26.7182V22.3145C27.0404 21.2402 28.7885 19.7168 31.5815 19.7168C35.0482 19.7168 37.7631 21.9629 37.7631 26.7871V35.459Z" fill="#EEF5FF"/>
</svg>
