<svg width="50" height="50" viewBox="0 0 50 50" fill="none" xmlns="http://www.w3.org/2000/svg">
<path fill-rule="evenodd" clip-rule="evenodd" d="M31.5789 5.26316C30.1255 5.26316 28.9474 4.08495 28.9474 2.63158C28.9474 1.17821 30.1255 0 31.5789 0H47.3684C48.8218 0 50 1.17821 50 2.63158V18.4211C50 19.8745 48.8218 21.0526 47.3684 21.0526C45.915 21.0526 44.7368 19.8745 44.7368 18.4211V8.98476L25.545 28.1766C24.5174 29.2042 22.8511 29.2042 21.8234 28.1766C20.7957 27.1489 20.7957 25.4826 21.8234 24.455L41.0153 5.26316H31.5789ZM7.89474 10.5263C6.44137 10.5263 5.26316 11.7045 5.26316 13.1579V42.1053C5.26316 43.5587 6.44137 44.7368 7.89474 44.7368H36.8421C38.2955 44.7368 39.4737 43.5587 39.4737 42.1053V30.0987C39.4737 28.6453 40.6518 27.4671 42.1053 27.4671C43.5587 27.4671 44.7368 28.6453 44.7368 30.0987V42.1053C44.7368 46.4655 41.2024 50 36.8421 50H7.89474C3.53461 50 0 46.4655 0 42.1053V13.1579C0 8.79776 3.53461 5.26316 7.89474 5.26316H19.9013C21.3547 5.26316 22.5329 6.44137 22.5329 7.89474C22.5329 9.34811 21.3547 10.5263 19.9013 10.5263H7.89474Z" fill="#A31010"/>
</svg>
