<svg width="50" height="50" viewBox="0 0 50 50" fill="none" xmlns="http://www.w3.org/2000/svg">
<path fill-rule="evenodd" clip-rule="evenodd" d="M46.9359 13.0049C47.0434 13.8024 47.1034 14.6545 47.1034 15.5744C47.1034 19.9693 46.6959 20.2169 37.5662 46.6085C44.9985 42.2737 49.9983 34.2213 49.9983 24.9992C49.9983 20.6518 48.8883 16.5648 46.9359 13.0049ZM25.4391 27.1866L17.9369 48.9803C22.9992 50.4702 28.364 50.3185 33.3014 48.5836C33.2339 48.4761 33.1739 48.3606 33.1239 48.2381L25.4391 27.1866ZM41.8761 23.737C41.8761 20.6471 40.7661 18.5064 39.8136 16.8415C38.5487 14.7815 37.3587 13.0398 37.3587 10.9799C37.3587 8.68243 39.1037 6.54275 41.5586 6.54275C41.6686 6.54275 41.7736 6.55728 41.8811 6.56228C37.4338 2.48742 31.5089 0 24.9992 0C16.267 0 8.58222 4.47944 4.11237 11.2667C5.70482 11.3167 7.84222 11.3373 12.3846 10.9823C13.732 10.9023 13.8895 12.8816 12.5446 13.0391C12.5446 13.0391 11.1896 13.1996 9.68218 13.2796L18.7869 40.3587L24.2567 23.9494L20.3618 13.2771C19.0169 13.1996 17.7419 13.0391 17.7419 13.0391C16.3944 12.9591 16.552 10.8999 17.8994 10.9799C23.0667 11.3773 25.7116 11.4073 31.1465 10.9799C32.4939 10.8999 32.6539 12.8791 31.3064 13.0391C31.3064 13.0391 29.949 13.1996 28.4441 13.2771L37.4787 40.1512C41.0461 28.2316 41.8761 26.2369 41.8761 23.737ZM0 24.9992C0 34.8938 5.74981 43.446 14.0895 47.4984L2.16492 14.8249C0.777467 17.9348 0 21.3743 0 24.9992Z" fill="#EEF5FF"/>
</svg>
